<?xml version="1.0" encoding="UTF-8"?>
<svg id="Layer_1" data-name="Layer 1" xmlns="http://www.w3.org/2000/svg" version="1.1" viewBox="0 0 686 980">
  <defs>
    <style>
      .cls-1 {
        fill: #0072c6;
        stroke-width: 0px;
      }
    </style>
  </defs>
  <path class="cls-1" d="M316.5,1.1C196.7,12.3,95.3,93.6,58.5,208c-22.9,71.2-17.4,151,14.9,218.5,5.7,11.9,23.6,41.2,83,136.3,41.6,66.6,75.9,121.8,76.2,122.7.4.8.1,1.5-.5,1.5s-7.7.9-15.9,2.1c-66.6,9.3-124,29.5-164.5,57.9-11.2,7.8-29.8,26.1-35.6,35-10.8,16.7-15.1,30.4-15.1,49s2.4,25.2,8.9,38.5c27.4,56,119.3,94.7,253.6,106.9,112.8,10.3,235.3-2.2,313.5-32.1,57.7-21.9,92.3-50.9,104.2-87.3,3.9-12.1,5-30.9,2.5-43.2-8.6-41.2-46.6-75-110.9-98.4-21-7.6-56.4-17.2-57.9-15.7-.4.5-12.3,19.2-26.3,41.8-17.6,28.1-25.2,41.1-24.4,41.6.7.3,5.4,1.4,10.3,2.3,41.7,7.9,91.1,25.9,110.8,40.4l6.1,4.5-4.1,3.6c-12.7,11.3-43.4,24.4-78.5,33.6-78.9,20.6-186.4,24.8-278.3,10.9-56.3-8.5-108.1-25.8-130.6-43.6l-5.3-4.1,4-3.5c15.8-13.7,59.7-30.4,105.4-40.1,22.7-4.8,73.4-11.9,76.5-10.7.6.2,14.8,22.7,31.5,50s30.6,49.6,30.9,49.6,59.7-98.1,131.9-218c83.8-139.1,133.7-222.9,137.8-231.4,10-20.9,18.6-46.6,23.3-70.1,7.6-37.6,7.4-79.3-.4-118.1-9-44.5-30.9-90.8-60.2-127.3-10.6-13.2-34.6-36.9-47.3-46.7C483.5,30,436.3,10,381.9,2.5c-13.8-1.9-51.6-2.7-65.4-1.4ZM373.2,141.3c47.3,12.4,81.1,46.3,93.5,93.5,3.4,13,4.3,37.2,1.9,50.9-9.4,53.9-51.7,96.2-104.9,104.8-31.9,5.2-64.6-2.1-92.2-20.4-9.3-6.1-24.8-21.2-31.7-30.8-27.6-38.4-31.5-89-10.3-131.6,12.1-24.2,34.3-45.9,59-57.7,19.2-9.1,33.8-12.1,57.5-11.6,14.8.3,19,.7,27.2,2.9Z"/>
  <path class="cls-1" d="M303.9,2.5c-54.4,7.5-101.6,27.5-146.1,61.9-12.7,9.8-36.7,33.5-47.3,46.7-29.3,36.5-51.2,82.8-60.2,127.3-7.8,38.8-8,80.5-.4,118.1,4.7,23.5,13.3,49.2,23.3,70.1,4.1,8.5,54,92.3,137.8,231.4,72.2,119.9,131.6,218,131.9,218s14.2-22.3,30.9-49.6,30.9-49.8,31.5-50c3.1-1.2,53.8,5.9,76.5,10.7,45.7,9.7,89.6,26.4,105.4,40.1l4,3.5-5.3,4.1c-22.5,17.8-74.3,35.1-130.6,43.6-91.9,13.9-199.4,9.7-278.3-10.9-35.1-9.2-65.8-22.3-78.5-33.6l-4.1-3.6,6.1-4.5c19.7-14.5,69.1-32.5,110.8-40.4,4.9-.9,9.6-2,10.3-2.3.8-.5-6.8-13.5-24.4-41.6-14-22.6-25.9-41.3-26.3-41.8-1.5-1.5-36.9,8.1-57.9,15.7-64.3,23.4-102.3,57.2-110.9,98.4-2.5,12.3-1.4,31.1,2.5,43.2,11.9,36.4,46.5,65.4,104.2,87.3,78.2,29.9,200.7,42.4,313.5,32.1,134.3-12.2,226.2-50.9,253.6-106.9,6.5-13.3,8.9-23.8,8.9-38.5,0-18.6-4.3-32.3-15.1-49-5.8-8.9-24.4-27.2-35.6-35-40.5-28.4-97.9-48.6-164.5-57.9-8.2-1.2-15.3-2.1-15.9-2.1s-.9-.7-.5-1.5c.3-.9,34.6-56.1,76.2-122.7,59.4-95.1,77.3-124.4,83-136.3,32.3-67.5,37.8-147.3,14.9-218.5C590.5,93.6,489.1,12.3,369.3,1.1c-13.8-1.3-51.6-.5-65.4,1.4ZM339.8,138.4c23.7-.5,38.3,2.5,57.5,11.6,24.7,11.8,46.9,33.5,59,57.7,21.2,42.6,17.3,93.2-10.3,131.6-6.9,9.6-22.4,24.7-31.7,30.8-27.6,18.3-60.3,25.6-92.2,20.4-53.2-8.6-95.5-50.9-104.9-104.8-2.4-13.7-1.5-37.9,1.9-50.9,12.4-47.2,46.2-81.1,93.5-93.5,8.2-2.2,12.4-2.6,27.2-2.9Z"/>
</svg>