<?xml version="1.0" encoding="UTF-8"?>
<svg xmlns="http://www.w3.org/2000/svg" version="1.1" xmlns:cc="http://creativecommons.org/ns#" xmlns:dc="http://purl.org/dc/elements/1.1/" xmlns:inkscape="http://www.inkscape.org/namespaces/inkscape" xmlns:rdf="http://www.w3.org/1999/02/22-rdf-syntax-ns#" xmlns:sodipodi="http://sodipodi.sourceforge.net/DTD/sodipodi-0.dtd" xmlns:svg="http://www.w3.org/2000/svg" viewBox="0 0 103.2 104.3">
  <defs>
    <style>
      .cls-1 {
        fill: #0072c6;
        stroke-width: 0px;
      }
    </style>
  </defs>
  <g id="Layer_1" data-name="Layer 1" sodipodi:docname="Outlook_logo.svg">
    <sodipodi:namedview id="namedview41" bordercolor="#666666" borderopacity="1" fit-margin-bottom="0" fit-margin-left="0" fit-margin-right="0" fit-margin-top="0" gridtolerance="10" guidetolerance="10" inkscape:current-layer="Layer_1" inkscape:cx="91.558992" inkscape:cy="89.87632" inkscape:pageopacity="0" inkscape:pageshadow="2" inkscape:window-height="837" inkscape:window-maximized="1" inkscape:window-width="1600" inkscape:window-x="-8" inkscape:window-y="-8" inkscape:zoom="1" objecttolerance="10" pagecolor="#ffffff" showgrid="false"/>
    <path id="path3" class="cls-1" d="M64.6,22.1v20.4l7.1,4.5c.2,0,.6,0,.8,0l30.7-20.7c0-2.4-2.3-4.2-3.6-4.2h-35Z" inkscape:connector-curvature="0"/>
    <path id="path5" class="cls-1" d="M64.6,50.1l6.5,4.5c.9.7,2,0,2,0-1.1.7,30.1-20,30.1-20v37.5c0,4.1-2.6,5.8-5.6,5.8h-33.1v-27.7h0Z" inkscape:connector-curvature="0"/>
    <g id="g23">
      <path id="path25" class="cls-1" d="M30.9,40.7c-2.2,0-4,1-5.3,3.1s-2,4.8-2,8.3.7,6.2,2,8.3c1.3,2,3,3,5.1,3s3.9-1,5.2-3,1.9-4.7,1.9-8.2-.6-6.5-1.9-8.5c-1.2-2-2.9-3-5.1-3Z" inkscape:connector-curvature="0"/>
      <path id="path27" class="cls-1" d="M0,11.8v79.8l60.7,12.7V0L0,11.8ZM40.6,65.2c-2.6,3.4-5.9,5.1-10,5.1s-7.3-1.6-9.8-4.9c-2.5-3.3-3.8-7.5-3.8-12.8s1.3-10,3.9-13.5c2.6-3.4,6-5.1,10.2-5.1s7.3,1.6,9.7,4.9c2.5,3.3,3.7,7.6,3.7,13,0,5.5-1.3,10-3.8,13.3Z" inkscape:connector-curvature="0"/>
    </g>
  </g>
</svg>