<?xml version="1.0" encoding="UTF-8"?>
<svg xmlns="http://www.w3.org/2000/svg" version="1.1" xmlns:inkscape="http://www.inkscape.org/namespaces/inkscape" xmlns:sodipodi="http://sodipodi.sourceforge.net/DTD/sodipodi-0.dtd" xmlns:svg="http://www.w3.org/2000/svg" viewBox="0 0 381.4 382.3">
  <defs>
    <style>
      .cls-1 {
        fill: #0072c6;
        stroke-width: 0px;
      }
    </style>
  </defs>
  <g id="svg5" sodipodi:docname="International Consortium of Investigative Journalists 2022 (Favicon).svg">
    <sodipodi:namedview id="namedview7" bordercolor="#666666" borderopacity="1.0" inkscape:current-layer="layer1" inkscape:cx="716.40625" inkscape:cy="551.5625" inkscape:document-units="mm" inkscape:pagecheckerboard="0" inkscape:pageopacity="0.0" inkscape:pageshadow="2" inkscape:window-height="1017" inkscape:window-maximized="1" inkscape:window-width="1920" inkscape:window-x="-8" inkscape:window-y="-8" inkscape:zoom="0.64" pagecolor="#ffffff" showgrid="false"/>
    <g id="layer1" inkscape:groupmode="layer" inkscape:label="Layer 1">
      <g id="g1044">
        <path id="path1025" class="cls-1" d="M286.9,259.1c3.3-16.6,5.3-34.1,6.1-52h56.1c-1.7,18-6.5,35.6-14.2,52h-48ZM303.1,304.3c-13,13-28.1,23.7-44.6,31.5,2.7-4.4,5.3-9,7.6-13.6,4.9-9.9,9.3-20.7,12.9-32.1h36.8c-3.9,5-8.2,9.8-12.7,14.3M205.9,259.1v-52h56.1c-.8,18.2-3.1,35.7-6.7,52h-49.4ZM238.4,308.3c-9.4,18.9-20.8,32.1-32.5,38.5v-56.8h40.4c-2.3,6.2-4.9,12.3-7.9,18.3M142.4,308.3c-3-5.9-5.6-12.1-7.9-18.3h40.4v56.8c-11.7-6.3-23.1-19.6-32.5-38.5M118.8,207h56.1v52h-49.4c-3.6-16.3-5.9-33.9-6.7-52M77.7,304.3c-4.5-4.5-8.7-9.3-12.7-14.3h36.8c3.7,11.5,8,22.2,12.9,32.1,2.3,4.7,4.9,9.2,7.6,13.6-16.6-7.9-31.7-18.5-44.6-31.5M45.9,259.1c-7.7-16.4-12.5-34-14.2-52h56.1c.8,18,2.8,35.5,6.1,52h-48ZM93.9,124c-3.3,16.6-5.3,34.1-6.1,52H31.7c1.7-18,6.5-35.6,14.2-52h48ZM77.7,78.8c13-13,28.1-23.7,44.6-31.5-2.7,4.4-5.3,9-7.6,13.6-4.9,9.9-9.3,20.7-12.9,32.1h-36.8c3.9-5,8.2-9.8,12.7-14.3M174.9,124v52h-56.1c.8-18.2,3.1-35.7,6.7-52h49.4ZM142.4,74.8c9.4-18.9,20.8-32.1,32.5-38.5v56.7h-40.4c2.3-6.2,4.9-12.3,7.9-18.3M238.4,74.8c3,5.9,5.6,12.1,7.9,18.3h-40.4v-56.8c11.7,6.3,23.1,19.6,32.5,38.5M262,176.1h-56.1v-52h49.4c3.6,16.3,5.9,33.9,6.7,52M303.1,78.8c4.5,4.5,8.7,9.3,12.7,14.3h-36.8c-3.7-11.5-8-22.2-12.9-32.1-2.3-4.7-4.9-9.2-7.6-13.6,16.6,7.9,31.7,18.5,44.6,31.5M334.9,124c7.7,16.4,12.5,34,14.2,52h-56.1c-.8-18-2.8-35.5-6.1-52h48ZM325,56.9C289.1,21,241.3,1.1,190.4,1.1S91.7,21,55.8,56.9C19.8,92.9,0,140.7,0,191.5s19.8,98.7,55.8,134.6c36,36,83.8,55.8,134.6,55.8s98.7-19.8,134.6-55.8c36-36,55.8-83.8,55.8-134.6s-19.8-98.7-55.8-134.6"/>
      </g>
    </g>
  </g>
</svg>